<?xml version="1.0" encoding="utf-8"?>
<!-- Generator: Adobe Illustrator 23.0.4, SVG Export Plug-In . SVG Version: 6.00 Build 0)  -->
<svg version="1.1" xmlns="http://www.w3.org/2000/svg" xmlns:xlink="http://www.w3.org/1999/xlink" x="0px" y="0px"
	 viewBox="0 0 1920 386.8" style="enable-background:new 0 0 1920 386.8;" xml:space="preserve">
<style type="text/css">
	.st0{clip-path:url(#SVGID_2_);fill:none;stroke:#000000;stroke-width:8;stroke-miterlimit:10;}
	.st1{clip-path:url(#SVGID_4_);fill:none;stroke:#000000;stroke-width:8;stroke-miterlimit:10;}
	.st2{clip-path:url(#SVGID_6_);fill:none;stroke:#000000;stroke-width:8;stroke-miterlimit:10;}
	.st3{clip-path:url(#SVGID_8_);fill:none;stroke:#000000;stroke-width:8;stroke-miterlimit:10;}
	.st4{clip-path:url(#SVGID_10_);}
	.st5{clip-path:url(#SVGID_12_);}
	.st6{clip-path:url(#SVGID_14_);}
	.st7{clip-path:url(#SVGID_16_);}
	.st8{clip-path:url(#SVGID_18_);}
</style>
<g id="Calque_1">
	<g>
		<g>
			<g>
				<defs>
					<rect id="SVGID_1_" x="3.9" y="2" width="1911.7" height="384.3"/>
				</defs>
				<clipPath id="SVGID_2_">
					<use xlink:href="#SVGID_1_"  style="overflow:visible;"/>
				</clipPath>
				<path class="st0" d="M464,381.4h1145.6c0,0,35.8-1.2,50.4-22c14.6-20.8,110.3-158,110.3-158"/>
			</g>
			<g>
				<defs>
					<rect id="SVGID_3_" x="3.9" y="2" width="1911.7" height="384.3"/>
				</defs>
				<clipPath id="SVGID_4_">
					<use xlink:href="#SVGID_3_"  style="overflow:visible;"/>
				</clipPath>
				<path class="st1" d="M544.3,346.5l1080.8-1.7c0,0,43.6,0.5,58.2-20.3s115-162.4,115-162.4"/>
			</g>
			<g>
				<defs>
					<rect id="SVGID_5_" x="3.9" y="2" width="1911.7" height="384.3"/>
				</defs>
				<clipPath id="SVGID_6_">
					<use xlink:href="#SVGID_5_"  style="overflow:visible;"/>
				</clipPath>
				<path class="st2" d="M572,307.3l1081.1-0.1c0,0,44.4-1.1,59-21.9s110-157.2,110-157.2"/>
			</g>
			<g>
				<defs>
					<rect id="SVGID_7_" x="3.9" y="2" width="1911.7" height="384.3"/>
				</defs>
				<clipPath id="SVGID_8_">
					<use xlink:href="#SVGID_7_"  style="overflow:visible;"/>
				</clipPath>
				<path class="st3" d="M624,267.7l1042.9,3.5c0,0,56.6-2.4,79.6-35.2S1906.9,6.5,1906.9,6.5h-1578c0,0-58.6-0.4-92.4,52
					C202.6,110.8,12.6,381.7,12.6,381.7h442.8c0,0,65.5-1.8,88.5-34.6c7-9.9,13.2-17.9,39.5-58C583.5,289.1,597,267.6,624,267.7z"/>
			</g>
			<g>
				<defs>
					<rect id="SVGID_9_" x="3.9" y="2" width="1911.7" height="384.3"/>
				</defs>
				<clipPath id="SVGID_10_">
					<use xlink:href="#SVGID_9_"  style="overflow:visible;"/>
				</clipPath>
				<path class="st4" d="M374.6,334.2c-10,14.5-0.3,18,19.9,18c1.7,0,65.9,0,67.5-0.1c15.9-0.5,28.5-3.9,36.9-16.1
					c8.3-12-1.4-13.6-18.4-14.7c-0.9-0.1-64.5-0.1-65.5-0.2c-13.8-0.9-16.2-1.6-13.6-5.5c2.6-3.7,6.4-5,18.8-5c18.9,0,64.6,0,65.5,0
					c10.9,0.2,14.5,1.8,10.9,6.9h12.7c8-11.6,1.4-16.5-14.8-17.1c-1.1,0-54.6,0-65.9,0c-18.5,0-31.9,3.5-39.5,14.6
					c-7.8,11.3-1.6,14.7,19.2,15.7c1.2,0.1,65,0.1,66,0.2c12.3,0.7,14.1,1.6,11.5,5.5c-2.5,3.6-6.9,5.2-17.7,5.4c-1.1,0-51,0-66,0
					c-16.1,0-18.6-2.4-15-7.8L374.6,334.2L374.6,334.2z"/>
			</g>
			<g>
				<defs>
					<rect id="SVGID_11_" x="3.9" y="2" width="1911.7" height="384.3"/>
				</defs>
				<clipPath id="SVGID_12_">
					<use xlink:href="#SVGID_11_"  style="overflow:visible;"/>
				</clipPath>
				<path class="st5" d="M335.6,325.3l17.2-25h-12.7l-17.2,25c-4.5,6.6-11.5,14.3-26.3,15c-0.8,0-34.2,0.1-35,0.1
					c-16.4,0-12.8-8-8-15.1l17.2-25h-12.7l-17.2,25c-12,17.5-8.5,25.9,13.2,25.9c1,0,34.5,0,35.5,0C316,351,318.7,348.7,335.6,325.3
					"/>
			</g>
			<g>
				<defs>
					<rect id="SVGID_13_" x="3.9" y="2" width="1911.7" height="384.3"/>
				</defs>
				<clipPath id="SVGID_14_">
					<use xlink:href="#SVGID_13_"  style="overflow:visible;"/>
				</clipPath>
				<path class="st6" d="M197,323.5c4.4-2.8,8.2-6.2,10.6-9.8c5.1-7.4,5.6-13.2-5.6-13.2h-98.8l-34.5,50.2h100.5
					c11.2,0,20.3-6.2,26.1-14.6C199.3,330.4,199.4,326.2,197,323.5 M109.1,309.9H191c3.4,0,6.6,0,3,5.2c-3.6,5.2-6.7,5.2-10.1,5.2
					h-0.1H102L109.1,309.9z M172.9,340.8H88.2l7.3-10.6h84.7c3.4,0,6.5,0,2.8,5.3C179.4,340.8,176.3,340.8,172.9,340.8"/>
			</g>
		</g>
		<polygon points="1093.3,30 1084.3,86.9 1161.5,30 		"/>
		<polygon points="1011.6,193.9 1002.6,250.9 934.4,250.9 		"/>
		<polygon points="1237.3,30 1072.4,149.4 1055.6,250.9 1137.8,250.9 1288.4,30 		"/>
		<polygon points="1485,56.5 1375.3,218.9 1210.9,218.9 1321.1,56.5 		"/>
		<g>
			<g>
				<defs>
					<rect id="SVGID_15_" x="3.9" y="2" width="1911.7" height="384.3"/>
				</defs>
				<clipPath id="SVGID_16_">
					<use xlink:href="#SVGID_15_"  style="overflow:visible;"/>
				</clipPath>
				<path class="st7" d="M1410.6,248.1h235.3c61.3,0,87.7-43.9,87.7-43.9s126.8-175.4,128.3-176.9h-295.8L1410.6,248.1z
					 M1813.1,51.1c-1.2,1.2-101.3,138.9-101.3,138.9s-20.8,34.4-68.9,34.4h-184.7l27.5-38.2c0,0,73.9-1,158.5-30.7
					C1709.5,132.6,1813.1,51.1,1813.1,51.1"/>
			</g>
			<g>
				<defs>
					<rect id="SVGID_17_" x="3.9" y="2" width="1911.7" height="384.3"/>
				</defs>
				<clipPath id="SVGID_18_">
					<use xlink:href="#SVGID_17_"  style="overflow:visible;"/>
				</clipPath>
				<path class="st8" d="M698.2,27.3H350.8c-61.3,0-87.7,43.9-87.7,43.9S135.5,246.6,134,248.1l412.2,2.7L698.2,27.3z M183.6,224.4
					c1.2-1.2,101.3-138.9,101.3-138.9s20.8-34.4,68.9-34.4h289l-29.4,40.9c0,0-176.2-1.7-260.9,28
					C287.1,142.9,183.6,224.4,183.6,224.4"/>
			</g>
		</g>
		<polygon points="989.5,30 969.2,59.6 736.2,59.6 704.5,103.1 842.6,103.9 805.2,157.6 665.9,158.5 623.9,218.9 862.5,218.9 
			843,248.1 862.5,248.1 1022.6,132.6 1040.2,30 		"/>
	</g>
</g>
<g id="Calque_2">
</g>
</svg>
